<?xml version="1.0" encoding="UTF-8"?>
<svg id="Layer_2" data-name="Layer 2" xmlns="http://www.w3.org/2000/svg" viewBox="0 0 17.84 17.84">
  <defs>
    <style>
      .cls-1 {
        fill: #09152c;
      }

      .cls-2 {
        fill: #555abe;
      }
    </style>
  </defs>
  <g id="polygon">
    <g>
      <circle class="cls-2" cx="8.92" cy="8.92" r="8.92"/>
      <path class="cls-1" d="M11.98,6.89c-.22-.12-.5-.12-.75,0l-1.74,1.02-1.18,.65-1.71,1.02c-.22,.12-.5,.12-.75,0l-1.34-.81c-.22-.12-.37-.37-.37-.65v-1.55c0-.25,.12-.5,.37-.65l1.34-.78c.22-.12,.5-.12,.75,0l1.34,.81c.22,.12,.37,.37,.37,.65v1.02l1.18-.68v-1.06c0-.25-.12-.5-.37-.65l-2.48-1.46c-.22-.12-.5-.12-.75,0l-2.55,1.49c-.25,.12-.37,.37-.37,.62v2.92c0,.25,.12,.5,.37,.65l2.52,1.46c.22,.12,.5,.12,.75,0l1.71-.99,1.18-.68,1.71-.99c.22-.12,.5-.12,.75,0l1.34,.78c.22,.12,.37,.37,.37,.65v1.55c0,.25-.12,.5-.37,.65l-1.3,.78c-.22,.12-.5,.12-.75,0l-1.34-.78c-.22-.12-.37-.37-.37-.65v-.99l-1.18,.68v1.02c0,.25,.12,.5,.37,.65l2.52,1.46c.22,.12,.5,.12,.75,0l2.52-1.46c.22-.12,.37-.37,.37-.65v-2.95c0-.25-.12-.5-.37-.65l-2.52-1.46Z"/>
    </g>
  </g>
</svg>